<?xml version="1.0" encoding="UTF-8" standalone="no"?>
<!DOCTYPE svg PUBLIC "-//W3C//DTD SVG 1.1//EN"
 "http://www.w3.org/Graphics/SVG/1.1/DTD/svg11.dtd">
<!-- Generated by graphviz version 2.40.1 (20161225.0304)
 -->
<!-- Title: state transitions Pages: 1 -->
<svg width="307pt" height="270pt"
 viewBox="0.00 0.00 306.67 270.00" xmlns="http://www.w3.org/2000/svg" xmlns:xlink="http://www.w3.org/1999/xlink">
<g id="graph0" class="graph" transform="scale(1 1) rotate(0) translate(4 266)">
<title>state transitions</title>
<polygon fill="#ffffff" stroke="transparent" points="-4,4 -4,-266 302.672,-266 302.672,4 -4,4"/>
<g id="clust1" class="cluster state regular">
<title>cluster_read_state</title>
<path fill="none" stroke="#000000" stroke-width="2" d="M20,-8C20,-8 278,-8 278,-8 284,-8 290,-14 290,-20 290,-20 290,-242 290,-242 290,-248 284,-254 278,-254 278,-254 20,-254 20,-254 14,-254 8,-248 8,-242 8,-242 8,-20 8,-20 8,-14 14,-8 20,-8"/>
<text text-anchor="start" x="120.6554" y="-235.2" font-family="Helvetica,sans-Serif" font-size="12.00" fill="#000000">read_state</text>
</g>
<!-- read_state -->
<!-- WAIT_RD_TRANS -->
<g id="node2" class="node state regular">
<title>WAIT_RD_TRANS</title>
<polygon fill="#ffffff" fill-opacity="0.003922" stroke="transparent" stroke-width="2" points="210.5,-216 87.5,-216 87.5,-180 210.5,-180 210.5,-216"/>
<text text-anchor="start" x="98.8378" y="-194.2" font-family="Helvetica,sans-Serif" font-size="12.00" fill="#000000">WAIT_RD_TRANS</text>
<path fill="none" stroke="#000000" stroke-width="2" d="M99.8333,-181C99.8333,-181 198.1667,-181 198.1667,-181 203.8333,-181 209.5,-186.6667 209.5,-192.3333 209.5,-192.3333 209.5,-203.6667 209.5,-203.6667 209.5,-209.3333 203.8333,-215 198.1667,-215 198.1667,-215 99.8333,-215 99.8333,-215 94.1667,-215 88.5,-209.3333 88.5,-203.6667 88.5,-203.6667 88.5,-192.3333 88.5,-192.3333 88.5,-186.6667 94.1667,-181 99.8333,-181"/>
</g>
<!-- CHECK_ADDR -->
<g id="node3" class="node state regular">
<title>CHECK_ADDR</title>
<polygon fill="#ffffff" fill-opacity="0.003922" stroke="transparent" stroke-width="2" points="201,-134 97,-134 97,-98 201,-98 201,-134"/>
<text text-anchor="start" x="107.672" y="-112.2" font-family="Helvetica,sans-Serif" font-size="12.00" fill="#000000">CHECK_ADDR</text>
<path fill="none" stroke="#000000" stroke-width="2" d="M109.3333,-99C109.3333,-99 188.6667,-99 188.6667,-99 194.3333,-99 200,-104.6667 200,-110.3333 200,-110.3333 200,-121.6667 200,-121.6667 200,-127.3333 194.3333,-133 188.6667,-133 188.6667,-133 109.3333,-133 109.3333,-133 103.6667,-133 98,-127.3333 98,-121.6667 98,-121.6667 98,-110.3333 98,-110.3333 98,-104.6667 103.6667,-99 109.3333,-99"/>
</g>
<!-- WAIT_RD_TRANS&#45;&gt;CHECK_ADDR -->
<g id="edge1" class="edge transition">
<title>WAIT_RD_TRANS&#45;&gt;CHECK_ADDR</title>
<path fill="none" stroke="#000000" d="M149,-179.8015C149,-169.3976 149,-156.1215 149,-144.3768"/>
<polygon fill="#000000" stroke="#000000" points="152.5001,-144.1476 149,-134.1476 145.5001,-144.1476 152.5001,-144.1476"/>
<text text-anchor="start" x="149" y="-154" font-family="Helvetica,sans-Serif" font-size="10.00" fill="#000000">arvalid &#160;&#160;</text>
</g>
<!-- SEND_DATA -->
<g id="node4" class="node state regular">
<title>SEND_DATA</title>
<polygon fill="#ffffff" fill-opacity="0.003922" stroke="transparent" stroke-width="2" points="113,-52 19,-52 19,-16 113,-16 113,-52"/>
<text text-anchor="start" x="29.9994" y="-30.2" font-family="Helvetica,sans-Serif" font-size="12.00" fill="#000000">SEND_DATA</text>
<path fill="none" stroke="#000000" stroke-width="2" d="M31.3333,-17C31.3333,-17 100.6667,-17 100.6667,-17 106.3333,-17 112,-22.6667 112,-28.3333 112,-28.3333 112,-39.6667 112,-39.6667 112,-45.3333 106.3333,-51 100.6667,-51 100.6667,-51 31.3333,-51 31.3333,-51 25.6667,-51 20,-45.3333 20,-39.6667 20,-39.6667 20,-28.3333 20,-28.3333 20,-22.6667 25.6667,-17 31.3333,-17"/>
</g>
<!-- CHECK_ADDR&#45;&gt;SEND_DATA -->
<g id="edge2" class="edge transition">
<title>CHECK_ADDR&#45;&gt;SEND_DATA</title>
<path fill="none" stroke="#000000" d="M128.3761,-97.749C122.5266,-92.4349 116.2078,-86.5612 110.533,-81 103.5759,-74.1821 96.2261,-66.5946 89.5465,-59.5396"/>
<polygon fill="#000000" stroke="#000000" points="92.0088,-57.0487 82.6119,-52.1549 86.9059,-61.8406 92.0088,-57.0487"/>
<text text-anchor="start" x="110" y="-72" font-family="Helvetica,sans-Serif" font-size="10.00" fill="#000000">good_raddr &#160;&#160;</text>
</g>
<!-- SEND_DATA_BAD -->
<g id="node5" class="node state regular">
<title>SEND_DATA_BAD</title>
<polygon fill="#ffffff" fill-opacity="0.003922" stroke="transparent" stroke-width="2" points="272.5,-52 147.5,-52 147.5,-16 272.5,-16 272.5,-52"/>
<text text-anchor="start" x="158.8298" y="-30.2" font-family="Helvetica,sans-Serif" font-size="12.00" fill="#000000">SEND_DATA_BAD</text>
<path fill="none" stroke="#000000" stroke-width="2" d="M159.8333,-17C159.8333,-17 260.1667,-17 260.1667,-17 265.8333,-17 271.5,-22.6667 271.5,-28.3333 271.5,-28.3333 271.5,-39.6667 271.5,-39.6667 271.5,-45.3333 265.8333,-51 260.1667,-51 260.1667,-51 159.8333,-51 159.8333,-51 154.1667,-51 148.5,-45.3333 148.5,-39.6667 148.5,-39.6667 148.5,-28.3333 148.5,-28.3333 148.5,-22.6667 154.1667,-17 159.8333,-17"/>
</g>
<!-- CHECK_ADDR&#45;&gt;SEND_DATA_BAD -->
<g id="edge3" class="edge transition">
<title>CHECK_ADDR&#45;&gt;SEND_DATA_BAD</title>
<path fill="none" stroke="#000000" d="M162.5379,-97.8015C170.7512,-86.7606 181.3708,-72.4851 190.4816,-60.2378"/>
<polygon fill="#000000" stroke="#000000" points="193.3395,-62.2601 196.5,-52.1476 187.7231,-58.082 193.3395,-62.2601"/>
<text text-anchor="start" x="183" y="-72" font-family="Helvetica,sans-Serif" font-size="10.00" fill="#000000">not (good_raddr) &#160;&#160;</text>
</g>
<!-- SEND_DATA&#45;&gt;WAIT_RD_TRANS -->
<g id="edge4" class="edge transition">
<title>SEND_DATA&#45;&gt;WAIT_RD_TRANS</title>
<path fill="none" stroke="#000000" d="M56.419,-52.1265C46.7619,-73.0933 35.1519,-108.0505 49.328,-134 58.9409,-151.5965 75.6901,-165.073 92.7451,-175.0154"/>
<polygon fill="#000000" stroke="#000000" points="91.2035,-178.1616 101.6555,-179.8955 94.5661,-172.0221 91.2035,-178.1616"/>
<text text-anchor="start" x="49" y="-113" font-family="Helvetica,sans-Serif" font-size="10.00" fill="#000000">rready &#160;&#160;</text>
</g>
<!-- SEND_DATA_BAD&#45;&gt;WAIT_RD_TRANS -->
<g id="edge5" class="edge transition">
<title>SEND_DATA_BAD&#45;&gt;WAIT_RD_TRANS</title>
<path fill="none" stroke="#000000" d="M257.3252,-52.1804C268.4229,-59.5123 275.8008,-69.0973 271,-81 254.8644,-121.0049 217.0369,-153.6427 187.7473,-174.1845"/>
<polygon fill="#000000" stroke="#000000" points="185.642,-171.3838 179.3522,-179.9096 189.586,-177.167 185.642,-171.3838"/>
<text text-anchor="start" x="262" y="-113" font-family="Helvetica,sans-Serif" font-size="10.00" fill="#000000">rready &#160;&#160;</text>
</g>
</g>
</svg>
