<?xml version="1.0" encoding="UTF-8" standalone="no"?>
<!DOCTYPE svg PUBLIC "-//W3C//DTD SVG 1.1//EN"
 "http://www.w3.org/Graphics/SVG/1.1/DTD/svg11.dtd">
<!-- Generated by graphviz version 2.40.1 (20161225.0304)
 -->
<!-- Title: state transitions Pages: 1 -->
<svg width="969pt" height="270pt"
 viewBox="0.00 0.00 969.00 270.00" xmlns="http://www.w3.org/2000/svg" xmlns:xlink="http://www.w3.org/1999/xlink">
<g id="graph0" class="graph" transform="scale(1 1) rotate(0) translate(4 266)">
<title>state transitions</title>
<polygon fill="#ffffff" stroke="transparent" points="-4,4 -4,-266 965,-266 965,4 -4,4"/>
<g id="clust1" class="cluster state regular">
<title>cluster_write_state</title>
<path fill="none" stroke="#000000" stroke-width="2" d="M20,-8C20,-8 941,-8 941,-8 947,-8 953,-14 953,-20 953,-20 953,-242 953,-242 953,-248 947,-254 941,-254 941,-254 20,-254 20,-254 14,-254 8,-248 8,-242 8,-242 8,-20 8,-20 8,-14 14,-8 20,-8"/>
<text text-anchor="start" x="451.496" y="-235.2" font-family="Helvetica,sans-Serif" font-size="12.00" fill="#000000">write_state</text>
</g>
<!-- write_state -->
<!-- WAIT_WR_TRANS -->
<g id="node2" class="node state regular">
<title>WAIT_WR_TRANS</title>
<polygon fill="#ffffff" fill-opacity="0.003922" stroke="transparent" stroke-width="2" points="409.5,-216 284.5,-216 284.5,-180 409.5,-180 409.5,-216"/>
<text text-anchor="start" x="295.5058" y="-194.2" font-family="Helvetica,sans-Serif" font-size="12.00" fill="#000000">WAIT_WR_TRANS</text>
<path fill="none" stroke="#000000" stroke-width="2" d="M296.8333,-181C296.8333,-181 397.1667,-181 397.1667,-181 402.8333,-181 408.5,-186.6667 408.5,-192.3333 408.5,-192.3333 408.5,-203.6667 408.5,-203.6667 408.5,-209.3333 402.8333,-215 397.1667,-215 397.1667,-215 296.8333,-215 296.8333,-215 291.1667,-215 285.5,-209.3333 285.5,-203.6667 285.5,-203.6667 285.5,-192.3333 285.5,-192.3333 285.5,-186.6667 291.1667,-181 296.8333,-181"/>
</g>
<!-- WAIT_ADDR -->
<g id="node3" class="node state regular">
<title>WAIT_ADDR</title>
<polygon fill="#ffffff" fill-opacity="0.003922" stroke="transparent" stroke-width="2" points="303,-134 211,-134 211,-98 303,-98 303,-134"/>
<text text-anchor="start" x="221.6714" y="-112.2" font-family="Helvetica,sans-Serif" font-size="12.00" fill="#000000">WAIT_ADDR</text>
<path fill="none" stroke="#000000" stroke-width="2" d="M223.3333,-99C223.3333,-99 290.6667,-99 290.6667,-99 296.3333,-99 302,-104.6667 302,-110.3333 302,-110.3333 302,-121.6667 302,-121.6667 302,-127.3333 296.3333,-133 290.6667,-133 290.6667,-133 223.3333,-133 223.3333,-133 217.6667,-133 212,-127.3333 212,-121.6667 212,-121.6667 212,-110.3333 212,-110.3333 212,-104.6667 217.6667,-99 223.3333,-99"/>
</g>
<!-- WAIT_WR_TRANS&#45;&gt;WAIT_ADDR -->
<g id="edge5" class="edge transition">
<title>WAIT_WR_TRANS&#45;&gt;WAIT_ADDR</title>
<path fill="none" stroke="#000000" d="M324.4153,-179.8098C318.0114,-174.4967 311.0955,-168.6083 304.888,-163 297.3977,-156.2326 289.4911,-148.6614 282.3085,-141.6059"/>
<polygon fill="#000000" stroke="#000000" points="284.4185,-138.7693 274.8526,-134.2149 279.4904,-143.7407 284.4185,-138.7693"/>
<text text-anchor="start" x="304" y="-154" font-family="Helvetica,sans-Serif" font-size="10.00" fill="#000000">wvalid &#160;&#160;</text>
</g>
<!-- WAIT_DATA -->
<g id="node4" class="node state regular">
<title>WAIT_DATA</title>
<polygon fill="#ffffff" fill-opacity="0.003922" stroke="transparent" stroke-width="2" points="106,-134 16,-134 16,-98 106,-98 106,-134"/>
<text text-anchor="start" x="26.6674" y="-112.2" font-family="Helvetica,sans-Serif" font-size="12.00" fill="#000000">WAIT_DATA</text>
<path fill="none" stroke="#000000" stroke-width="2" d="M28.3333,-99C28.3333,-99 93.6667,-99 93.6667,-99 99.3333,-99 105,-104.6667 105,-110.3333 105,-110.3333 105,-121.6667 105,-121.6667 105,-127.3333 99.3333,-133 93.6667,-133 93.6667,-133 28.3333,-133 28.3333,-133 22.6667,-133 17,-127.3333 17,-121.6667 17,-121.6667 17,-110.3333 17,-110.3333 17,-104.6667 22.6667,-99 28.3333,-99"/>
</g>
<!-- WAIT_WR_TRANS&#45;&gt;WAIT_DATA -->
<g id="edge3" class="edge transition">
<title>WAIT_WR_TRANS&#45;&gt;WAIT_DATA</title>
<path fill="none" stroke="#000000" d="M284.4236,-194.8394C203.2907,-190.0898 70.3432,-179.8295 55.413,-163 50.7965,-157.7963 49.8442,-150.8945 50.6376,-143.9867"/>
<polygon fill="#000000" stroke="#000000" points="54.0912,-144.5779 52.8255,-134.059 47.2552,-143.0714 54.0912,-144.5779"/>
<text text-anchor="start" x="56" y="-154" font-family="Helvetica,sans-Serif" font-size="10.00" fill="#000000">awvalid &amp;&amp; good_waddr &#160;&#160;</text>
</g>
<!-- WAIT_DATA_BAD -->
<g id="node5" class="node state regular">
<title>WAIT_DATA_BAD</title>
<polygon fill="#ffffff" fill-opacity="0.003922" stroke="transparent" stroke-width="2" points="862,-134 740,-134 740,-98 862,-98 862,-134"/>
<text text-anchor="start" x="750.9978" y="-112.2" font-family="Helvetica,sans-Serif" font-size="12.00" fill="#000000">WAIT_DATA_BAD</text>
<path fill="none" stroke="#000000" stroke-width="2" d="M752.3333,-99C752.3333,-99 849.6667,-99 849.6667,-99 855.3333,-99 861,-104.6667 861,-110.3333 861,-110.3333 861,-121.6667 861,-121.6667 861,-127.3333 855.3333,-133 849.6667,-133 849.6667,-133 752.3333,-133 752.3333,-133 746.6667,-133 741,-127.3333 741,-121.6667 741,-121.6667 741,-110.3333 741,-110.3333 741,-104.6667 746.6667,-99 752.3333,-99"/>
</g>
<!-- WAIT_WR_TRANS&#45;&gt;WAIT_DATA_BAD -->
<g id="edge4" class="edge transition">
<title>WAIT_WR_TRANS&#45;&gt;WAIT_DATA_BAD</title>
<path fill="none" stroke="#000000" d="M409.8731,-192.0446C452.1919,-187.6062 509.1546,-180.7986 559,-172 616.8853,-161.7823 681.7349,-146.5696 729.7226,-134.5777"/>
<polygon fill="#000000" stroke="#000000" points="730.8528,-137.9025 739.6981,-132.0706 729.1466,-131.1137 730.8528,-137.9025"/>
<text text-anchor="start" x="659" y="-154" font-family="Helvetica,sans-Serif" font-size="10.00" fill="#000000">awvalid &amp;&amp; !good_waddr &#160;&#160;</text>
</g>
<!-- SEND_RESP -->
<g id="node6" class="node state regular">
<title>SEND_RESP</title>
<polygon fill="#ffffff" fill-opacity="0.003922" stroke="transparent" stroke-width="2" points="197,-52 103,-52 103,-16 197,-16 197,-52"/>
<text text-anchor="start" x="113.6634" y="-30.2" font-family="Helvetica,sans-Serif" font-size="12.00" fill="#000000">SEND_RESP</text>
<path fill="none" stroke="#000000" stroke-width="2" d="M115.3333,-17C115.3333,-17 184.6667,-17 184.6667,-17 190.3333,-17 196,-22.6667 196,-28.3333 196,-28.3333 196,-39.6667 196,-39.6667 196,-45.3333 190.3333,-51 184.6667,-51 184.6667,-51 115.3333,-51 115.3333,-51 109.6667,-51 104,-45.3333 104,-39.6667 104,-39.6667 104,-28.3333 104,-28.3333 104,-22.6667 109.6667,-17 115.3333,-17"/>
</g>
<!-- WAIT_WR_TRANS&#45;&gt;SEND_RESP -->
<g id="edge1" class="edge transition">
<title>WAIT_WR_TRANS&#45;&gt;SEND_RESP</title>
<path fill="none" stroke="#000000" d="M344.2898,-179.6609C342.0944,-157.1507 342.2716,-119.3472 363.742,-98 398.1525,-63.787 501.3868,-105.1346 469,-69 451.8754,-49.8938 294.229,-40.1619 207.1541,-36.2061"/>
<polygon fill="#000000" stroke="#000000" points="207.3013,-32.7093 197.1561,-35.7632 206.9914,-39.7024 207.3013,-32.7093"/>
<text text-anchor="start" x="363" y="-113" font-family="Helvetica,sans-Serif" font-size="10.00" fill="#000000">awvalid &amp;&amp; wvalid &amp;&amp; good_waddr &#160;&#160;</text>
</g>
<!-- SEND_RESP_BAD -->
<g id="node7" class="node state regular">
<title>SEND_RESP_BAD</title>
<polygon fill="#ffffff" fill-opacity="0.003922" stroke="transparent" stroke-width="2" points="690,-52 564,-52 564,-16 690,-16 690,-52"/>
<text text-anchor="start" x="574.9938" y="-30.2" font-family="Helvetica,sans-Serif" font-size="12.00" fill="#000000">SEND_RESP_BAD</text>
<path fill="none" stroke="#000000" stroke-width="2" d="M576.3333,-17C576.3333,-17 677.6667,-17 677.6667,-17 683.3333,-17 689,-22.6667 689,-28.3333 689,-28.3333 689,-39.6667 689,-39.6667 689,-45.3333 683.3333,-51 677.6667,-51 677.6667,-51 576.3333,-51 576.3333,-51 570.6667,-51 565,-45.3333 565,-39.6667 565,-39.6667 565,-28.3333 565,-28.3333 565,-22.6667 570.6667,-17 576.3333,-17"/>
</g>
<!-- WAIT_WR_TRANS&#45;&gt;SEND_RESP_BAD -->
<g id="edge2" class="edge transition">
<title>WAIT_WR_TRANS&#45;&gt;SEND_RESP_BAD</title>
<path fill="none" stroke="#000000" d="M409.6458,-191.4826C470.2522,-184.3027 553,-171.7913 553,-157 553,-157 553,-157 553,-75 553,-68.9415 554.9213,-63.7709 558.1448,-59.3594"/>
<polygon fill="#000000" stroke="#000000" points="560.673,-61.7804 565.2196,-52.2107 555.6976,-56.8564 560.673,-61.7804"/>
<text text-anchor="start" x="553" y="-113" font-family="Helvetica,sans-Serif" font-size="10.00" fill="#000000">awvalid &amp;&amp; wvalid &amp;&amp; !good_waddr &#160;&#160;</text>
</g>
<!-- WAIT_ADDR&#45;&gt;SEND_RESP -->
<g id="edge6" class="edge transition">
<title>WAIT_ADDR&#45;&gt;SEND_RESP</title>
<path fill="none" stroke="#000000" d="M216.7506,-97.9688C207.6781,-93.0713 198.3832,-87.344 190.413,-81 183.0299,-75.1233 175.9632,-67.7582 169.8623,-60.6137"/>
<polygon fill="#000000" stroke="#000000" points="172.2177,-57.9644 163.1829,-52.4306 166.7948,-62.3908 172.2177,-57.9644"/>
<text text-anchor="start" x="190" y="-72" font-family="Helvetica,sans-Serif" font-size="10.00" fill="#000000">awvalid &amp;&amp; good_waddr &#160;&#160;</text>
</g>
<!-- WAIT_ADDR&#45;&gt;SEND_RESP_BAD -->
<g id="edge7" class="edge transition">
<title>WAIT_ADDR&#45;&gt;SEND_RESP_BAD</title>
<path fill="none" stroke="#000000" d="M303.0795,-102.7343C308.7739,-101.1245 314.5178,-99.5148 320,-98 368.1676,-84.6908 379.8416,-79.796 428.634,-69 469.6756,-59.9189 515.908,-51.6495 553.4087,-45.4316"/>
<polygon fill="#000000" stroke="#000000" points="554.4428,-48.8087 563.7428,-43.7332 553.3075,-41.9013 554.4428,-48.8087"/>
<text text-anchor="start" x="428" y="-72" font-family="Helvetica,sans-Serif" font-size="10.00" fill="#000000">awvalid &amp;&amp; !good_waddr &#160;&#160;</text>
</g>
<!-- WAIT_DATA&#45;&gt;SEND_RESP -->
<g id="edge8" class="edge transition">
<title>WAIT_DATA&#45;&gt;SEND_RESP</title>
<path fill="none" stroke="#000000" d="M67.6111,-97.8969C71.7533,-88.4287 77.8439,-77.147 85.888,-69 89.9976,-64.8378 94.7076,-61.0392 99.6683,-57.6084"/>
<polygon fill="#000000" stroke="#000000" points="101.6354,-60.5052 108.1915,-52.1824 97.8762,-54.6002 101.6354,-60.5052"/>
<text text-anchor="start" x="85" y="-72" font-family="Helvetica,sans-Serif" font-size="10.00" fill="#000000">wvalid &#160;&#160;</text>
</g>
<!-- WAIT_DATA_BAD&#45;&gt;SEND_RESP_BAD -->
<g id="edge9" class="edge transition">
<title>WAIT_DATA_BAD&#45;&gt;SEND_RESP_BAD</title>
<path fill="none" stroke="#000000" d="M762.3838,-97.8015C736.3876,-85.5505 701.9405,-69.3168 674.2995,-56.2906"/>
<polygon fill="#000000" stroke="#000000" points="675.7465,-53.1033 665.2086,-52.0063 672.7624,-59.4354 675.7465,-53.1033"/>
<text text-anchor="start" x="725" y="-72" font-family="Helvetica,sans-Serif" font-size="10.00" fill="#000000">wvalid &#160;&#160;</text>
</g>
<!-- SEND_RESP&#45;&gt;WAIT_WR_TRANS -->
<g id="edge10" class="edge transition">
<title>SEND_RESP&#45;&gt;WAIT_WR_TRANS</title>
<path fill="none" stroke="#000000" d="M146.6856,-52.0392C143.753,-73.8947 142.4352,-110.6783 161.098,-134 175.8011,-152.3735 228.5951,-169.521 274.1829,-181.4331"/>
<polygon fill="#000000" stroke="#000000" points="273.5279,-184.8782 284.0836,-183.9691 275.2649,-178.0971 273.5279,-184.8782"/>
<text text-anchor="start" x="161" y="-113" font-family="Helvetica,sans-Serif" font-size="10.00" fill="#000000">bready &#160;&#160;</text>
</g>
<!-- SEND_RESP_BAD&#45;&gt;WAIT_WR_TRANS -->
<g id="edge11" class="edge transition">
<title>SEND_RESP_BAD&#45;&gt;WAIT_WR_TRANS</title>
<path fill="none" stroke="#000000" d="M690.3094,-37.1144C772.6261,-42.0296 906,-53.3362 906,-75 906,-157 906,-157 906,-157 906,-163.0233 571.3536,-184.2705 419.91,-193.5776"/>
<polygon fill="#000000" stroke="#000000" points="419.5342,-190.094 409.7673,-194.1999 419.9629,-197.0808 419.5342,-190.094"/>
<text text-anchor="start" x="906" y="-113" font-family="Helvetica,sans-Serif" font-size="10.00" fill="#000000">bready &#160;&#160;</text>
</g>
</g>
</svg>
